<?xml version="1.0" standalone="no"?>
<!DOCTYPE svg PUBLIC "-//W3C//DTD SVG 20010904//EN"
 "http://www.w3.org/TR/2001/REC-SVG-20010904/DTD/svg10.dtd">
<svg version="1.0" xmlns="http://www.w3.org/2000/svg"
 width="260.000000pt" height="260.000000pt" viewBox="0 0 260.000000 260.000000"
 preserveAspectRatio="xMidYMid meet">
<metadata>
Created by potrace 1.14, written by Peter Selinger 2001-2017
</metadata>
<g transform="translate(0.000000,260.000000) scale(0.100000,-0.100000)"
fill="#000000" stroke="none">
<path d="M1089 2585 c-628 -106 -1089 -650 -1089 -1285 0 -718 583 -1300 1302
-1300 713 0 1298 585 1298 1298 0 637 -465 1185 -1093 1287 -110 18 -313 18
-418 0z m386 -70 c390 -55 750 -315 924 -668 200 -406 164 -880 -95 -1252 -62
-90 -209 -237 -299 -299 -372 -259 -846 -295 -1252 -95 -231 114 -445 330
-558 564 -50 104 -94 247 -110 360 -116 810 580 1506 1390 1390z"/>
<path d="M1170 2114 c-147 -31 -283 -127 -342 -241 -82 -156 -108 -276 -75
-339 l16 -31 -74 -108 c-41 -60 -75 -119 -75 -132 0 -24 28 -47 73 -57 27 -6
27 -8 21 -54 -5 -37 -2 -51 10 -61 12 -10 13 -18 5 -33 -8 -15 -6 -26 7 -46
14 -20 18 -42 15 -83 -4 -83 15 -114 79 -128 28 -6 76 -11 106 -11 30 0 70 -6
88 -14 57 -24 66 -47 66 -167 0 -59 3 -114 6 -123 5 -14 47 -16 361 -16 l356
0 -6 38 c-12 78 -30 420 -23 455 4 20 38 100 76 177 104 209 115 248 115 405
0 110 -4 141 -23 197 -66 192 -223 326 -437 374 -77 17 -261 16 -345 -2z m312
-105 c183 -38 331 -172 374 -339 31 -123 3 -218 -86 -294 -61 -51 -179 -68
-250 -37 -14 6 -68 42 -120 81 -115 85 -259 161 -359 188 -92 26 -118 43 -129
86 -35 127 98 269 291 311 77 17 209 19 279 4z"/>
<path d="M1300 1993 c-9 -2 -20 -14 -25 -26 -7 -16 -19 -22 -43 -22 -38 0 -55
-20 -40 -49 9 -16 7 -23 -11 -37 -28 -23 -29 -69 -1 -69 25 0 37 -25 21 -44
-17 -20 21 -51 46 -38 21 12 53 -2 53 -23 0 -9 10 -15 25 -15 18 0 28 7 35 26
9 23 15 26 40 20 35 -7 51 14 43 57 -5 23 -1 29 16 34 30 8 29 51 -3 62 -27
11 -41 38 -26 56 7 8 4 17 -9 29 -16 15 -22 15 -41 4 -19 -12 -24 -10 -43 13
-12 14 -29 24 -37 22z m78 -109 c30 -34 28 -70 -7 -105 -33 -32 -65 -37 -99
-13 -52 36 -48 109 7 139 33 19 70 11 99 -21z"/>
<path d="M1289 1854 c-17 -21 0 -49 32 -49 27 0 37 28 19 50 -16 19 -34 19
-51 -1z"/>
<path d="M1078 1849 c-22 -23 -32 -24 -52 -3 -10 9 -24 13 -36 9 -16 -5 -17
-10 -8 -30 13 -29 -3 -55 -33 -55 -20 0 -23 -8 -13 -34 3 -9 10 -13 15 -11 4
3 18 -4 29 -15 16 -16 18 -25 10 -40 -8 -15 -6 -20 11 -25 15 -5 25 -2 31 9
11 20 36 21 58 1 27 -24 47 -9 46 33 -1 29 4 39 22 47 27 12 30 45 3 45 -26 0
-44 26 -37 54 4 17 1 26 -10 30 -19 7 -15 9 -36 -15z m0 -71 c17 -17 15 -43
-4 -59 -31 -26 -70 25 -44 56 15 18 32 19 48 3z"/>
<path d="M1630 1807 c0 -20 -33 -47 -58 -47 -12 0 -30 10 -41 21 -19 21 -21
21 -45 5 -22 -14 -24 -19 -14 -41 16 -35 -11 -73 -54 -77 -25 -2 -33 -9 -39
-30 -5 -20 -4 -28 5 -28 19 0 46 -34 46 -58 0 -12 -9 -30 -19 -39 -18 -15 -18
-19 -5 -44 13 -25 17 -27 39 -17 37 17 79 -13 73 -52 -4 -25 -1 -30 24 -35 23
-6 34 -1 57 24 31 33 63 33 84 0 10 -16 14 -16 38 -3 24 12 27 18 22 52 -6 43
11 64 54 66 20 1 28 8 34 29 4 15 3 27 -2 27 -17 0 -49 40 -49 60 0 11 9 29
21 41 19 19 19 22 5 44 -13 20 -21 22 -55 18 -33 -5 -41 -2 -51 17 -6 12 -10
31 -7 41 6 21 3 24 -35 33 -20 5 -28 3 -28 -7z m50 -117 c35 -19 61 -89 49
-132 -23 -85 -119 -123 -190 -75 -94 63 -73 195 36 225 31 9 66 3 105 -18z"/>
<path d="M1565 1686 c-40 -17 -55 -37 -62 -80 -18 -113 116 -172 189 -82 22
27 23 94 2 125 -15 21 -70 52 -91 51 -4 -1 -22 -7 -38 -14z m70 -87 c14 -43
-45 -66 -61 -24 -8 19 13 45 37 45 10 0 21 -10 24 -21z"/>
</g>
</svg>
